<?xml version="1.0" encoding="utf-8"?>
<!-- Generator: Adobe Illustrator 25.2.0, SVG Export Plug-In . SVG Version: 6.00 Build 0)  -->
<svg version="1.1" xmlns="http://www.w3.org/2000/svg" xmlns:xlink="http://www.w3.org/1999/xlink" x="0px" y="0px"
	 viewBox="0 0 500 500" style="enable-background:new 0 0 500 500;" xml:space="preserve">
<style type="text/css">
	.st0{fill:#EBEBEB;}
	.st1{fill:#FAFAFA;}
	.st2{fill:#FFFFFF;}
	.st3{fill:#E0E0E0;}
	.st4{fill:#F0F0F0;}
	.st5{opacity:0.5;fill:#EBEBEB;}
	.st6{fill:#F5F5F5;}
	.st7{display:none;}
	.st8{display:inline;}
	.st9{fill:#407BFF;}
	.st10{opacity:0.9;fill:#FFFFFF;}
	.st11{fill:#B55B52;}
	.st12{fill:#263238;}
	.st13{fill:#B65B52;}
	.st14{opacity:0.2;}
	.st15{fill:#A02724;}
	.st16{opacity:0.2;fill:#407BFF;}
	.st17{opacity:0.5;fill:#FFFFFF;}
	.st18{opacity:0.4;fill:#407BFF;}
	.st19{opacity:0.8;fill:#FFFFFF;}
	.st20{opacity:0.5;fill:#407BFF;}
	.st21{opacity:0.8;}
	.st22{opacity:0.3;fill:#407BFF;}
	.st23{opacity:0.8;fill-rule:evenodd;clip-rule:evenodd;fill:#FFFFFF;}
</style>
<g id="Background_Complete">
	<g>
		<rect y="382.4" class="st0" width="500" height="0.2"/>
		<rect x="52.5" y="391.9" class="st0" width="33.1" height="0.2"/>
		<rect x="171.1" y="389.2" class="st0" width="55.4" height="0.2"/>
		<rect x="91" y="397.9" class="st0" width="19.2" height="0.2"/>
		<rect x="385.5" y="391.8" class="st0" width="43.2" height="0.2"/>
		<rect x="437.6" y="391.8" class="st0" width="6.3" height="0.2"/>
		<rect x="277.2" y="395.3" class="st0" width="46.8" height="0.2"/>
		<path class="st0" d="M237,337.8H43.9c-3.1,0-5.7-2.6-5.7-5.7V60.7c0-3.1,2.6-5.7,5.7-5.7H237c3.1,0,5.7,2.6,5.7,5.7v271.4
			C242.7,335.2,240.2,337.8,237,337.8z M43.9,55.2c-3,0-5.5,2.4-5.5,5.5v271.4c0,3,2.4,5.5,5.5,5.5H237c3,0,5.5-2.4,5.5-5.5V60.7
			c0-3-2.4-5.5-5.5-5.5H43.9z"/>
		<path class="st0" d="M453.3,337.8H260.2c-3.1,0-5.7-2.6-5.7-5.7V60.7c0-3.1,2.6-5.7,5.7-5.7h193.1c3.1,0,5.7,2.6,5.7,5.7v271.4
			C459,335.2,456.5,337.8,453.3,337.8z M260.2,55.2c-3,0-5.5,2.4-5.5,5.5v271.4c0,3,2.4,5.5,5.5,5.5h193.1c3,0,5.5-2.4,5.5-5.5V60.7
			c0-3-2.4-5.5-5.5-5.5H260.2z"/>
	</g>
	<g>
		<g>
			<g>
				<rect x="104.8" y="74.4" class="st1" width="193.1" height="138.6"/>
				<polygon class="st2" points="286.9,213 237.7,74.4 200.9,74.4 250,213 				"/>
				<polygon class="st2" points="187.8,213 138.7,74.4 125.2,74.4 174.3,213 				"/>
				<g>
					<path class="st3" d="M95.6,69.6H307c0.5,0,0.9,0.4,0.9,0.9l0,0c0,0.5-0.4,0.9-0.9,0.9H95.6c-0.5,0-0.9-0.4-0.9-0.9l0,0
						C94.7,70,95.1,69.6,95.6,69.6z"/>
					<rect x="200.2" y="74.1" class="st4" width="2.3" height="139.2"/>
					<rect x="199" y="74.1" class="st3" width="1.1" height="139.2"/>
					
						<rect x="200.2" y="45.8" transform="matrix(6.123234e-17 -1 1 6.123234e-17 57.6222 345.0016)" class="st4" width="2.3" height="195.7"/>
					<path class="st4" d="M103.4,212L103.4,212V75.3v-2.3h2.3h191.2h2.3v2.3V212h0v2.3h0l0,0h-2.3l0,0H105.7l0,0h-2.3l0,0l0,0V212z
						 M296.9,212V75.3H105.7V212H296.9z"/>
					<rect x="102.3" y="73.1" class="st3" width="1.1" height="141.3"/>
				</g>
			</g>
			<g>
				<polygon class="st5" points="131.8,67.5 131.8,230.3 90.5,230.3 98.1,67.5 				"/>
				<polygon class="st5" points="269.7,67.5 269.7,230.3 311,230.3 303.4,67.5 				"/>
			</g>
		</g>
		<g>
			<g>
				<g>
					<rect x="61.9" y="249.8" class="st4" width="15.8" height="127.8"/>
					<rect x="64.9" y="377.6" class="st4" width="173.6" height="4.8"/>
					
						<rect x="77.7" y="249.8" transform="matrix(-1 -1.224647e-16 1.224647e-16 -1 319.2858 627.4077)" class="st6" width="163.9" height="127.8"/>
					<rect x="59.9" y="245.6" class="st4" width="16.1" height="4.2"/>
					
						<rect x="76" y="245.6" transform="matrix(-1 -1.224647e-16 1.224647e-16 -1 319.6335 495.407)" class="st1" width="167.5" height="4.2"/>
					<path class="st3" d="M235.9,321.7H83.3v-63.2h152.6V321.7z M84.4,320.7h150.5v-61.1H84.4V320.7z"/>
					<path class="st3" d="M235.9,368.9H83.3v-40.8h152.6V368.9z M84.4,367.8h150.5v-38.7H84.4V367.8z"/>
					<path class="st3" d="M214,262.5H105.3c-0.8,0-1.4-0.6-1.4-1.4v-0.6c0-0.8,0.6-1.4,1.4-1.4H214c0.8,0,1.4,0.6,1.4,1.4v0.6
						C215.4,261.8,214.7,262.5,214,262.5z"/>
					<path class="st3" d="M214,332H105.3c-0.8,0-1.4-0.6-1.4-1.4V330c0-0.8,0.6-1.4,1.4-1.4H214c0.8,0,1.4,0.6,1.4,1.4v0.6
						C215.4,331.3,214.7,332,214,332z"/>
				</g>
			</g>
		</g>
		<g>
			
				<rect x="347.9" y="96.5" transform="matrix(-1 -1.224647e-16 1.224647e-16 -1 787.3951 472.8128)" class="st4" width="91.7" height="279.7"/>
			<rect x="344.9" y="96.5" class="st3" width="2.9" height="279.7"/>
			
				<rect x="362.7" y="107.2" transform="matrix(-1 -1.224647e-16 1.224647e-16 -1 787.3951 472.8128)" class="st1" width="61.9" height="258.4"/>
		</g>
	</g>
</g>
<g id="Background_Simple" class="st7">
	<g class="st8">
		<path class="st9" d="M146.5,288.8c41.9,14.3,94.5-1.8,136.9-21.9c168.6-63.8,74.6-197.1-39-186.9
			C130.6,90.2,19.5,245.3,146.5,288.8z"/>
		<path class="st10" d="M146.5,288.8c41.9,14.3,94.5-1.8,136.9-21.9c168.6-63.8,74.6-197.1-39-186.9
			C130.6,90.2,19.5,245.3,146.5,288.8z"/>
	</g>
</g>
<g id="Shadow_1_">
	<ellipse id="_x3C_Path_x3E__291_" class="st6" cx="250" cy="416.2" rx="193.9" ry="11.3"/>
</g>
<g id="Character_1_">
	<g>
		<polygon class="st11" points="143.4,407.5 151.2,404.6 146.4,385.6 138.6,388.6 		"/>
		<polygon class="st11" points="84.5,407.7 92.9,407.7 94.2,388.3 85.8,388.3 		"/>
		<path class="st12" d="M93.7,406.7H83.5c-0.3,0-0.6,0.2-0.7,0.6l-1.3,7.4c-0.1,0.8,0.5,1.5,1.3,1.5c3.3-0.1,5.7-0.2,9.8-0.2
			c2.5,0,10.2,0.3,13.7,0.3c3.4,0,3.8-3.5,2.3-3.8c-6.5-1.4-11.5-3.4-13.6-5.2C94.7,406.9,94.2,406.7,93.7,406.7z"/>
		<path class="st12" d="M150.8,403.7l-8.6,3.2c-0.3,0.1-0.5,0.4-0.5,0.8l1.1,7.5c0.1,0.8,0.9,1.3,1.7,1c3.1-1.2,5.7-2.8,9.6-4.2
			c4.6-1.6,9.1-3.4,12.8-5.7c2.9-1.8,1.7-5.3,0.3-4.8c-6.2,2.5-7.7,3.3-14.3,2.1C152.2,403.4,151.5,403.4,150.8,403.7z"/>
		<path class="st13" d="M128.7,152.5c2.6,4.7,5.4,9.5,8.2,14.1c2.8,4.7,5.7,9.3,8.7,13.6c0.7,1.1,1.6,2.1,2.3,3.2
			c0.3,0.5,0.4,0.6,0.7,0.8c0.2,0.2,0.7,0.3,1.5,0.2c0.8-0.1,1.8-0.3,2.8-0.7c2.1-0.8,4.3-2,6.5-3.4c1.1-0.7,2.2-1.4,3.2-2.2
			c1.1-0.8,2.2-1.6,3.1-2.4l4.7,4.2c-0.9,1.3-1.8,2.4-2.7,3.6c-1,1.1-1.9,2.3-3,3.3c-1.1,1.1-2.2,2.1-3.4,3.1c-1.2,1-2.5,1.9-4,2.7
			c-1.5,0.8-3.1,1.6-5.1,2.1c-1.9,0.5-4.3,0.6-6.8,0c-2.5-0.6-4.7-2.2-6.2-3.9c-1-1.2-2-2.2-2.9-3.4c-3.7-4.5-7-9.3-10.1-14
			c-3.1-4.8-5.9-9.7-8.7-14.8L128.7,152.5z"/>
		<g>
			<path class="st9" d="M113.8,152.9c-2.3,7.7,13.6,28.6,13.6,28.6l16-10.3c0,0-4.7-10.7-11.1-18.8
				C125.8,144,116.3,144.4,113.8,152.9z"/>
			<path class="st14" d="M113.8,152.9c-2.3,7.7,13.6,28.6,13.6,28.6l16-10.3c0,0-4.7-10.7-11.1-18.8
				C125.8,144,116.3,144.4,113.8,152.9z"/>
		</g>
		<path class="st14" d="M123.6,161.9c3.3,1.4,8.1,9.3,10.7,15.2l-6.8,4.4c0,0-6.1-8.1-10.2-16C119.4,163.1,121.9,161.2,123.6,161.9z
			"/>
		<path class="st11" d="M164.7,178.3l2.9-8.2l8.3,4c0,0-1.7,7.3-7.8,7.3L164.7,178.3z"/>
		<polygon class="st11" points="175.1,164.7 178.6,168.6 176,174.1 167.7,170.1 		"/>
		<polygon class="st14" points="146.4,385.6 148.9,395.4 141,398.4 138.6,388.6 		"/>
		<polygon class="st14" points="85.8,388.3 94.2,388.3 93.5,398.3 85.1,398.3 		"/>
		<g>
			<path class="st9" d="M76.5,149.5c9,31.8,7.5,65.6,8.1,72.4c6.6-0.2,31.3-1.2,44.8-1.7c7.6-47.4-6.1-73.8-6.1-73.8s-2.9-0.6-6.8-1
				c-1.2-0.1-2.5-0.2-3.9-0.3c-0.8,0-1.5-0.1-2.3-0.1c-5.1-0.1-13.3,0.7-19,1.4c-1.2,0.1-2.4,0.3-3.6,0.5c-1.1,0.2-2.2,0.4-3.2,0.6
				C80,148.5,76.5,149.5,76.5,149.5z"/>
			<path class="st14" d="M76.5,149.5c9,31.8,7.5,65.6,8.1,72.4c6.6-0.2,31.3-1.2,44.8-1.7c7.6-47.4-6.1-73.8-6.1-73.8
				s-2.9-0.6-6.8-1c-1.2-0.1-2.5-0.2-3.9-0.3c-0.8,0-1.5-0.1-2.3-0.1c-5.1-0.1-13.3,0.7-19,1.4c-1.2,0.1-2.4,0.3-3.6,0.5
				c-1.1,0.2-2.2,0.4-3.2,0.6C80,148.5,76.5,149.5,76.5,149.5z"/>
		</g>
		<path class="st14" d="M86,163.1c0.8,3.1-0.1,17.1-3.3,20.6c-0.4-4.5-1-9.2-1.8-14L86,163.1z"/>
		<path class="st11" d="M91.6,125c1.7,6,3.7,17.1-0.3,21.5c3.6,3.1,8.2,6.5,15.5,6.3c7.3-0.3,5.6-5.2,3.5-7.7
			c-6.9-1.1-7.1-6.2-6.3-11L91.6,125z"/>
		<g>
			<polygon class="st9" points="107,151.7 108.3,152.6 103.5,154 104.7,151.8 			"/>
			<polygon class="st9" points="108.8,151.2 108.3,152.6 113.1,154 112.8,151.4 			"/>
			<path class="st2" d="M88.4,146l1.9-1c0.6-0.3,1.4-0.3,1.9,0.2c2,1.5,7.3,5,14.7,6.5c-3.8,1.8-2.9,6.7-2.9,6.7s-12.2-4-16.1-11.3
				C87.8,146.7,88,146.2,88.4,146z"/>
			<path class="st2" d="M112.4,144.8l-2.8-0.4c-0.3,0-0.5,0.3-0.4,0.6c1,1.4,2.6,4.4-0.5,6.3c3.8,1.8,5,6.3,5,6.3s5-5.4-0.8-12.5
				C112.9,144.9,112.7,144.8,112.4,144.8z"/>
		</g>
		<path class="st14" d="M96.7,128.7l7.3,5.4c-0.2,1.1-0.3,2.3-0.3,3.4c-2.6-0.2-6.4-2.8-6.9-5.5C96.5,130.6,96.5,129.3,96.7,128.7z"
			/>
		<path class="st12" d="M112.9,112.6c-0.3,2.9-3.1,5.4-4.9,6l-2.2-12.7C110.7,102.4,113.3,108.5,112.9,112.6z"/>
		<path class="st11" d="M89.1,116.1c1.5,8.2,1.9,13,6.5,16.8c7,5.6,16.7,0.7,17.7-7.8c0.9-7.6-1.6-19.7-10.1-22.1
			C95,100.8,87.6,107.9,89.1,116.1z"/>
		<path class="st12" d="M90.6,121.6c3.8,2,5.5-2.5,5.5-4.3c0.1-2.9-1.2-6.1-2.7-7.3c7.3,0,21.8-0.4,18.1-7.3c-3.7-7-11-6.2-16.5-2.4
			c-2.9,2-12.3,0.3-10,5.7C80.2,108.6,84.4,118.3,90.6,121.6z"/>
		<path class="st12" d="M85.9,105.5c0,0-1.6,0.1-3.6-1.2c0.6,2.6,3.2,2.6,3.2,2.6L85.9,105.5z"/>
		<path class="st11" d="M86,122.8c1,2,2.8,3.4,4.6,3.9c2.6,0.9,3.2-1.6,2.6-4.1c-0.6-2.3-1.8-5.4-4.5-5.2
			C86,117.8,84.9,120.5,86,122.8z"/>
		<path class="st12" d="M139.1,308.8c-3.4-25.3-9.8-88.5-9.8-88.5l-29.4,1.1c0,0,13.9,63.2,18.9,88.8s19,87.4,19,87.4l13.3-5
			C151.1,392.5,142.7,335.1,139.1,308.8z"/>
		<path class="st14" d="M110.9,238.4c-1.8,0.5-4.7,1.6-6.5,3.3c2.8,12.8,6.4,29.6,9.5,44.4C116.1,273.3,116.1,249,110.9,238.4z"/>
		<path class="st12" d="M113.5,220.8c0,0-6.2,68.6-9.1,92.9c-3.1,26.7-7,82.6-7,82.6H82c0,0-0.6-49.5,1.4-75.6
			c2.3-29.8,1.2-98.9,1.2-98.9L113.5,220.8z"/>
		<polygon class="st9" points="99.4,396.7 81.3,396.7 81,391.3 101.1,390.9 		"/>
		<polygon class="st9" points="152.9,392.2 137.1,398.1 135.2,393 152.7,386.1 		"/>
		<path class="st12" d="M101.9,117c0.1,0.7,0.5,1.2,0.9,1.1c0.4-0.1,0.7-0.6,0.7-1.3c-0.1-0.7-0.5-1.2-0.9-1.1
			C102.1,115.7,101.8,116.3,101.9,117z"/>
		<path class="st12" d="M109.4,116.1c0.1,0.7,0.5,1.2,0.9,1.1c0.4-0.1,0.7-0.6,0.7-1.3c-0.1-0.7-0.5-1.2-0.9-1.1
			S109.4,115.4,109.4,116.1z"/>
		<path class="st15" d="M107.1,116.7c0,0,2,3.7,3.9,5.4c-1.1,1.2-3.1,1-3.1,1L107.1,116.7z"/>
		<path class="st12" d="M105.2,125.2c-2.6,0-4-1.7-4-1.8c-0.1-0.1-0.1-0.2,0-0.3c0.1-0.1,0.2-0.1,0.3,0c0,0,1.6,1.9,4.6,1.6
			c0.1,0,0.2,0.1,0.2,0.2c0,0.1-0.1,0.2-0.2,0.2C105.7,125.2,105.5,125.2,105.2,125.2z"/>
		<path class="st12" d="M99.2,114.8c-0.1,0-0.1,0-0.2-0.1c-0.2-0.1-0.3-0.4-0.1-0.5c1.1-1.9,2.9-2,3-2c0.2,0,0.4,0.2,0.4,0.4
			c0,0.2-0.2,0.4-0.4,0.4l0,0c-0.1,0-1.5,0.1-2.4,1.6C99.5,114.7,99.4,114.8,99.2,114.8z"/>
		<path class="st12" d="M112.4,113.1c-0.1,0-0.3-0.1-0.3-0.2c-0.9-1.5-2.4-1.5-2.4-1.5c-0.2,0-0.4-0.2-0.4-0.4
			c0-0.2,0.2-0.4,0.4-0.4c0.1,0,1.9,0,3.1,1.9c0.1,0.2,0.1,0.4-0.1,0.5C112.6,113.1,112.5,113.1,112.4,113.1z"/>
		<g>
			<path class="st9" d="M96.6,408.2c-0.8,0-1.6-0.2-2.2-0.3c-0.1,0-0.1-0.1-0.2-0.2c0-0.1,0-0.2,0.1-0.2c0.3-0.2,2.9-1.9,3.9-1.4
				c0.1,0.1,0.3,0.2,0.4,0.6c0,0.4-0.1,0.8-0.4,1C97.8,408.1,97.2,408.2,96.6,408.2z M94.9,407.6c1.4,0.3,2.5,0.2,3-0.2
				c0.2-0.2,0.3-0.4,0.2-0.7c0-0.2-0.1-0.2-0.1-0.2C97.5,406.2,96,407,94.9,407.6z"/>
			<path class="st9" d="M94.4,407.9c0,0-0.1,0-0.1,0c-0.1,0-0.1-0.1-0.1-0.2c0-0.1,0.1-2.5,1-3.3c0.2-0.2,0.5-0.3,0.8-0.3
				c0,0,0,0,0,0c0.5,0.1,0.6,0.4,0.7,0.5C96.9,405.6,95.4,407.4,94.4,407.9C94.5,407.9,94.5,407.9,94.4,407.9z M95.9,404.5
				c-0.2,0-0.3,0.1-0.4,0.2c-0.6,0.5-0.8,1.9-0.9,2.6c0.8-0.7,1.8-2,1.7-2.6C96.3,404.6,96.3,404.5,95.9,404.5L95.9,404.5
				C96,404.5,96,404.5,95.9,404.5z"/>
			<path class="st9" d="M152,404.5c-0.1,0-0.1,0-0.2-0.1c0-0.1,0-0.2,0-0.2c0.3-0.3,2.8-3.1,4-2.9c0.2,0,0.4,0.2,0.5,0.4
				c0,0,0,0,0,0c0.2,0.4,0.2,0.7,0,1C155.7,403.7,153.4,404.2,152,404.5C152,404.5,152,404.5,152,404.5z M155.7,401.6
				c-0.7,0-2.1,1.3-3.1,2.4c1.8-0.4,3.1-0.9,3.4-1.5c0.1-0.2,0.1-0.4,0-0.7C155.9,401.6,155.8,401.6,155.7,401.6
				C155.7,401.6,155.7,401.6,155.7,401.6z"/>
			<path class="st9" d="M152,404.5C151.9,404.5,151.9,404.5,152,404.5c-0.1,0-0.2-0.1-0.2-0.1c0-0.1-0.6-2.3,0.1-3.5
				c0.2-0.4,0.5-0.6,0.9-0.7l0,0c0.5-0.1,0.8,0.1,0.9,0.3c0.5,0.8-0.8,3.2-1.5,4C152.1,404.4,152,404.5,152,404.5z M153.1,400.5
				c-0.1,0-0.1,0-0.2,0c0,0,0,0,0,0c-0.3,0.1-0.5,0.2-0.7,0.5c-0.5,0.8-0.3,2.2-0.1,2.8c0.7-0.9,1.5-2.8,1.2-3.3
				C153.3,400.6,153.2,400.5,153.1,400.5z M152.8,400.3L152.8,400.3L152.8,400.3z"/>
		</g>
		<g>
			<path class="st13" d="M85.7,161.3c-2.5,5.2-5.1,10.5-7.6,15.8c-1.2,2.6-2.5,5.3-3.6,7.9l-1.7,4l-0.8,2l-0.2,0.5l-0.1,0.4
				c-0.1,0.2-0.2,0.5-0.3,0.7c-0.6,1.9-0.8,3.9-0.3,6.1c0.4,2.2,1.3,4.4,2.6,6.7c1.3,2.2,2.9,4.4,4.8,6.4c0.9,1,1.9,2.1,2.9,3
				c0.5,0.5,1,1,1.5,1.4c0.5,0.5,1.1,1,1.5,1.3l-3.3,5.3c-1.6-0.8-2.8-1.6-4.2-2.5c-1.3-0.9-2.6-1.8-3.9-2.8c-2.5-2-4.9-4.3-7-7
				c-2.1-2.7-3.9-5.8-5.1-9.4c-1.1-3.6-1.4-7.7-0.5-11.6c0.1-0.5,0.2-1,0.4-1.4l0.4-1.2l0.7-2.2c0.5-1.5,1-2.9,1.5-4.3
				c1-2.9,2.1-5.7,3.3-8.5c2.3-5.6,4.9-11,7.7-16.5L85.7,161.3z"/>
			<g>
				<path class="st9" d="M76.5,149.5c-7.6,2.4-15.2,28.3-15.2,28.3l17.7,7.7c0,0,5.7-12.5,9-22.3C91.6,152.5,85.8,146.6,76.5,149.5z
					"/>
				<path class="st14" d="M76.5,149.5c-7.6,2.4-15.2,28.3-15.2,28.3l17.7,7.7c0,0,5.7-12.5,9-22.3C91.6,152.5,85.8,146.6,76.5,149.5
					z"/>
			</g>
			<path class="st11" d="M82.5,215.9l7.3,4.3l-7.1,7.1c0,0-6.2-4.8-4.3-8.5L82.5,215.9z"/>
			<polygon class="st11" points="94.7,227.2 87.3,232.3 82.7,227.3 89.8,220.3 			"/>
		</g>
	</g>
</g>
<g id="Screen">
	<g>
		<g>
			
				<rect x="446.3" y="216" transform="matrix(7.224832e-02 -0.9974 0.9974 7.224832e-02 200.3721 648.4017)" class="st9" width="4.8" height="1"/>
			
				<rect x="442.7" y="202.3" transform="matrix(7.225553e-02 -0.9974 0.9974 7.225553e-02 214.9011 636.7047)" class="st9" width="14" height="1"/>
			<path class="st9" d="M422.3,353H177.4c-7.5,0-13.2-6.1-12.6-13.6l13-180.8c0.5-7.5,7.1-13.6,14.6-13.6h244.9
				c7.5,0,13.2,6.1,12.6,13.6l-13,180.8C436.4,346.8,429.8,353,422.3,353z"/>
			<polygon class="st9" points="365.3,416.2 285.8,416.2 271.7,318 351.2,318 			"/>
			<polygon class="st9" points="352.7,410.4 266.7,410.4 265,416.2 351,416.2 			"/>
			<polygon class="st12" points="355.4,365.3 277.9,361.1 271.7,318 348.6,318 			"/>
			<path class="st12" d="M419.6,353H174.6c-7.5,0-13.2-6.1-12.6-13.6l13-180.8c0.5-7.5,7.1-13.6,14.6-13.6h244.9
				c7.5,0,13.2,6.1,12.6,13.6l-13,180.8C433.6,346.8,427,353,419.6,353z"/>
			
				<rect x="391.3" y="211.7" transform="matrix(7.158172e-02 -0.9974 0.9974 7.158172e-02 199.8676 639.1325)" class="st2" width="104" height="1"/>
			
				<rect x="419.6" y="290.6" transform="matrix(7.147760e-02 -0.9974 0.9974 7.147760e-02 116.0421 706.7129)" class="st2" width="36" height="1"/>
		</g>
		<g>
			<g>
				<path class="st2" d="M419,349.6H175.6c-5.8,0-10.3-4.8-9.8-10.6l12.9-180.1c0.4-5.8,5.5-10.6,11.4-10.6h243.4
					c5.8,0,10.3,4.8,9.8,10.6L430.4,339C430,344.8,424.9,349.6,419,349.6z"/>
				<path class="st16" d="M419,349.6H175.6c-5.8,0-10.3-4.8-9.8-10.6l12.9-180.1c0.4-5.8,5.5-10.6,11.4-10.6h243.4
					c5.8,0,10.3,4.8,9.8,10.6L430.4,339C430,344.8,424.9,349.6,419,349.6z"/>
				<path class="st17" d="M238.1,341.6h-56.8c-2.8,0-5-2.3-4.8-5.1l12.5-175c0.2-2.8,2.7-5.1,5.5-5.1h56.8c2.8,0,5,2.3,4.8,5.1
					l-12.5,175C243.3,339.3,240.9,341.6,238.1,341.6z"/>
			</g>
			<path class="st18" d="M235.9,181h-29.4c-2.5,0-4.5-2.1-4.3-4.6l0.3-4.5c0.2-2.5,2.4-4.6,4.9-4.6h29.4c2.5,0,4.5,2.1,4.3,4.6
				l-0.3,4.5C240.6,178.9,238.4,181,235.9,181z"/>
			<g>
				<path class="st9" d="M217.2,251.8h-44.9c-4.4,0-7.8-3.6-7.5-8l3.2-44.9c0.3-4.4,4.2-8,8.6-8h44.9c4.4,0,7.8,3.6,7.5,8l-3.2,44.9
					C225.5,248.2,221.6,251.8,217.2,251.8z"/>
				<path class="st2" d="M223.6,215c-1.7,0-3.2,1.4-3.3,3.1l-0.5,6.5c-0.1,1.7,1.2,3.1,2.8,3.1h4.6c0.4,0,0.8-0.3,0.8-0.8l0.8-11.1
					c0-0.4-0.3-0.8-0.7-0.8H223.6z"/>
				<path class="st2" d="M206.3,202.2H178c-0.7,0-1.2-0.6-1.1-1.2l0,0c0-0.7,0.6-1.2,1.3-1.2h28.3c0.7,0,1.2,0.6,1.1,1.2l0,0
					C207.5,201.7,206.9,202.2,206.3,202.2z"/>
				<path class="st2" d="M205.8,208.5h-28.3c-0.7,0-1.2-0.6-1.1-1.2l0,0c0-0.7,0.6-1.2,1.3-1.2H206c0.7,0,1.2,0.6,1.1,1.2l0,0
					C207.1,207.9,206.5,208.5,205.8,208.5z"/>
				<path class="st2" d="M195.6,214.7h-18.5c-0.7,0-1.2-0.6-1.1-1.2l0,0c0-0.7,0.6-1.2,1.3-1.2h18.5c0.7,0,1.2,0.6,1.1,1.2l0,0
					C196.9,214.2,196.3,214.7,195.6,214.7z"/>
				<path class="st17" d="M206.3,244.5h-27.4c-2.9,0-5.1-2.4-4.9-5.3l1-14.4c0.2-2.9,2.7-5.3,5.6-5.3h27.4c2.9,0,5.1,2.4,4.9,5.3
					l-1,14.4C211.8,242.2,209.2,244.5,206.3,244.5z"/>
			</g>
			<g>
				<path class="st18" d="M231.9,268.6h-34.1c-1.3,0-2.2-1-2.1-2.3l0,0c0.1-1.3,1.2-2.3,2.4-2.3h34.1c1.3,0,2.2,1,2.1,2.3l0,0
					C234.3,267.6,233.2,268.6,231.9,268.6z"/>
				<path class="st19" d="M225,277.6h-21.6c-1.3,0-2.2-1-2.1-2.3l0,0c0.1-1.3,1.2-2.3,2.4-2.3h21.6c1.3,0,2.2,1,2.1,2.3l0,0
					C227.4,276.5,226.3,277.6,225,277.6z"/>
				<path class="st18" d="M230.1,293.3h-34.1c-1.3,0-2.2-1-2.1-2.3l0,0c0.1-1.3,1.2-2.3,2.4-2.3h34.1c1.3,0,2.2,1,2.1,2.3l0,0
					C232.5,292.3,231.4,293.3,230.1,293.3z"/>
				<path class="st19" d="M223.3,302.3h-21.6c-1.3,0-2.2-1-2.1-2.3l0,0c0.1-1.3,1.2-2.3,2.4-2.3h21.6c1.3,0,2.2,1,2.1,2.3l0,0
					C225.6,301.2,224.5,302.3,223.3,302.3z"/>
				<path class="st18" d="M228.4,318h-34.1c-1.3,0-2.2-1-2.1-2.3l0,0c0.1-1.3,1.2-2.3,2.4-2.3h34.1c1.3,0,2.2,1,2.1,2.3l0,0
					C230.7,317,229.6,318,228.4,318z"/>
				<path class="st19" d="M221.5,326.9h-21.6c-1.3,0-2.2-1-2.1-2.3v0c0.1-1.3,1.2-2.3,2.4-2.3h21.6c1.3,0,2.2,1,2.1,2.3v0
					C223.9,325.9,222.8,326.9,221.5,326.9z"/>
			</g>
			<g>
				<path class="st20" d="M421.7,290.3c1.5-2.3,4.9-1.3,4.7,1.3l-3.3,45.8c-0.2,2.4-1.9,4.3-4,4.3H254.3c-2,0-3.5-1.9-3.4-4.3
					l1.9-27.2c0.3-3.7,4-6.3,7.4-5.2c9.3,2.9,17.3,1.2,24.6-2.5c15.8-7.9,29.1-24.7,47.3-24.7c0.7,0,1.4,0,2.1,0.1
					c27.1,1.6,35.3,35.2,56.3,35.2c6.2,0,11.9-2.7,16.8-6.5C413.3,301.9,418.2,295.5,421.7,290.3z"/>
				<path class="st20" d="M425.1,309.1l-2,28.2c-0.2,2.4-1.9,4.3-4,4.3H254.3c-2,0-3.5-1.9-3.4-4.3l4-56.1c0.3-3.8,5.3-5.5,7.3-2.3
					c5.3,8,13.4,18.4,22.7,23.5c3.6,2,7.3,3.2,11.1,3.2c13.3,0,24.6-15.8,38.2-27.8c8.3-7.4,17.4-13.3,28.3-13.3
					c22.8,0,26.1,37,44.7,42.1c3.6,1,7.7,0.8,12.7-1.1C422.6,304.4,425.3,306.3,425.1,309.1z"/>
				<g class="st21">
					<path class="st2" d="M425.9,298.2c-0.1,0-0.2,0-0.2-0.1c0,0-0.1-0.1-0.1-0.1c0,0,0-0.1,0-0.1c0-0.1,0-0.2,0.1-0.2
						c0.1-0.1,0.3-0.1,0.5,0c0.1,0.1,0.1,0.2,0.1,0.2c0,0,0,0.1,0,0.1c0,0,0,0.1-0.1,0.1C426.1,298.1,426,298.2,425.9,298.2z"/>
					<path class="st2" d="M265.6,321.6c-0.2,0-0.3-0.1-0.3-0.3l0,0c0-0.2,0.2-0.3,0.3-0.3v0c0.2,0,0.3,0.2,0.3,0.3l0,0
						C266,321.5,265.8,321.6,265.6,321.6L265.6,321.6C265.6,321.6,265.6,321.6,265.6,321.6z M262.2,321.4
						C262.2,321.4,262.2,321.4,262.2,321.4L262.2,321.4c-0.2,0-0.3-0.2-0.3-0.4l0,0c0-0.2,0.2-0.3,0.4-0.3l0,0
						c0.2,0,0.3,0.2,0.3,0.4l0,0C262.6,321.3,262.4,321.4,262.2,321.4L262.2,321.4C262.2,321.4,262.2,321.4,262.2,321.4z
						 M268.7,321.1c0-0.2,0.1-0.4,0.3-0.4l0,0c0.2,0,0.4,0.1,0.4,0.3l0,0c0,0.2-0.1,0.4-0.3,0.4l0,0c0,0,0,0,0,0l0,0
						C268.8,321.4,268.7,321.3,268.7,321.1z M258.8,320.9c-0.2,0-0.3-0.2-0.3-0.4l0,0c0-0.2,0.2-0.3,0.4-0.3l0,0
						c0.2,0,0.3,0.2,0.3,0.4l0,0C259.2,320.8,259.1,320.9,258.8,320.9L258.8,320.9C258.9,320.9,258.8,320.9,258.8,320.9z M272,320.6
						c0-0.2,0.1-0.4,0.2-0.4l0,0c0.2,0,0.4,0.1,0.4,0.2l0,0c0,0.2-0.1,0.4-0.2,0.4l0,0c0,0,0,0,0,0l0,0c0,0-0.1,0-0.1,0l0,0
						C272.2,320.8,272,320.7,272,320.6z M381.4,320.7c-0.2,0-0.3-0.2-0.3-0.3l0,0c0-0.2,0.2-0.3,0.3-0.3l0,0c0.2,0,0.3,0.2,0.3,0.3
						l0,0C381.7,320.5,381.6,320.7,381.4,320.7L381.4,320.7L381.4,320.7z M384.4,320.2c0-0.2,0.1-0.4,0.3-0.4l0,0
						c0.2,0,0.4,0.1,0.4,0.3l0,0c0,0.2-0.1,0.4-0.3,0.4l0,0c0,0,0,0,0,0l0,0C384.6,320.5,384.5,320.4,384.4,320.2z M378,320.5
						c-0.2,0-0.3-0.2-0.3-0.4l0,0c0-0.2,0.2-0.3,0.4-0.3l0,0c0.2,0,0.3,0.2,0.3,0.4l0,0C378.3,320.4,378.2,320.5,378,320.5
						L378,320.5C378,320.5,378,320.5,378,320.5z M255.5,320.1c-0.2-0.1-0.3-0.2-0.2-0.4l0,0c0.1-0.2,0.2-0.3,0.4-0.2l0,0
						c0.2,0.1,0.3,0.2,0.2,0.4l0,0C255.9,320,255.8,320.1,255.5,320.1L255.5,320.1C255.6,320.1,255.5,320.1,255.5,320.1z
						 M387.8,319.8c0-0.2,0.1-0.4,0.3-0.4l0,0c0.2,0,0.4,0.1,0.4,0.3l0,0c0,0.2-0.1,0.4-0.3,0.4l0,0l0,0l0,0c0,0,0,0-0.1,0l0,0
						C388,320,387.8,319.9,387.8,319.8z M374.6,319.9c-0.2,0-0.3-0.2-0.2-0.4l0,0c0-0.2,0.2-0.3,0.4-0.2l0,0c0.2,0,0.3,0.2,0.2,0.4
						l0,0C375,319.8,374.8,319.9,374.6,319.9L374.6,319.9C374.7,319.9,374.6,319.9,374.6,319.9z M275.3,319.6
						c-0.1-0.2,0-0.4,0.2-0.4l0,0c0.2-0.1,0.4,0,0.4,0.2l0,0c0.1,0.2,0,0.4-0.2,0.4l0,0c0,0-0.1,0-0.1,0l0,0
						C275.4,319.8,275.3,319.7,275.3,319.6z M391.1,319c0-0.2,0.1-0.4,0.2-0.4l0,0c0.2,0,0.4,0.1,0.4,0.2l0,0c0,0.2-0.1,0.4-0.2,0.4
						l0,0l0,0l0,0c0,0-0.1,0-0.1,0l0,0C391.3,319.2,391.1,319.1,391.1,319z M371.3,318.9L371.3,318.9L371.3,318.9
						c-0.2-0.1-0.3-0.3-0.2-0.4l0,0c0.1-0.2,0.3-0.3,0.4-0.2l0,0c0.2,0.1,0.3,0.3,0.2,0.4l0,0c0,0.1-0.2,0.2-0.3,0.2l0,0
						C371.4,318.9,371.4,318.9,371.3,318.9z M278.4,318.2c-0.1-0.2,0-0.4,0.1-0.5l0,0c0.2-0.1,0.4,0,0.5,0.2l0,0
						c0.1,0.2,0,0.4-0.1,0.5l0,0l0,0l0,0c0,0-0.1,0-0.2,0l0,0C278.5,318.4,278.4,318.4,278.4,318.2z M394.4,318
						c-0.1-0.2,0-0.4,0.2-0.4l0,0c0.2-0.1,0.4,0,0.4,0.2l0,0c0.1,0.2,0,0.4-0.2,0.4l0,0c0,0-0.1,0-0.1,0l0,0
						C394.5,318.2,394.4,318.1,394.4,318z M368.2,317.6L368.2,317.6L368.2,317.6c-0.2-0.1-0.2-0.3-0.2-0.5l0,0
						c0.1-0.2,0.3-0.2,0.5-0.2l0,0c0.2,0.1,0.2,0.3,0.2,0.5l0,0c-0.1,0.1-0.2,0.2-0.3,0.2l0,0C368.3,317.6,368.2,317.6,368.2,317.6z
						 M397.5,316.8c-0.1-0.2,0-0.4,0.2-0.4l0,0c0.2-0.1,0.4,0,0.4,0.2l0,0c0.1,0.2,0,0.4-0.2,0.5l0,0l0,0l0,0c0,0-0.1,0-0.1,0l0,0
						C397.7,317,397.6,316.9,397.5,316.8z M281.3,316.6c-0.1-0.2,0-0.4,0.1-0.5l0,0c0.2-0.1,0.4-0.1,0.5,0.1l0,0
						c0.1,0.2,0,0.4-0.1,0.5l0,0l0,0l0,0c0,0-0.1,0.1-0.2,0.1l0,0C281.5,316.8,281.4,316.7,281.3,316.6z M365.1,316L365.1,316
						L365.1,316c-0.2-0.1-0.2-0.3-0.1-0.5l0,0c0.1-0.2,0.3-0.2,0.5-0.1l0,0c0.2,0.1,0.2,0.3,0.1,0.5l0,0c-0.1,0.1-0.2,0.2-0.3,0.2
						l0,0C365.2,316.1,365.2,316.1,365.1,316z M400.6,315.4c-0.1-0.2,0-0.4,0.2-0.5l0,0c0.2-0.1,0.4,0,0.5,0.2l0,0
						c0.1,0.2,0,0.4-0.2,0.5l0,0c0,0,0,0,0,0l0,0c0,0-0.1,0-0.1,0l0,0C400.8,315.6,400.7,315.6,400.6,315.4z M284.1,314.7
						c-0.1-0.2-0.1-0.4,0.1-0.5l0,0c0.2-0.1,0.4-0.1,0.5,0.1l0,0c0.1,0.2,0.1,0.4-0.1,0.5l0,0c-0.1,0-0.1,0.1-0.2,0.1l0,0
						C284.3,314.9,284.2,314.8,284.1,314.7z M362.2,314.3C362.2,314.3,362.2,314.3,362.2,314.3L362.2,314.3
						c-0.2-0.1-0.2-0.3-0.1-0.5l0,0c0.1-0.2,0.3-0.2,0.5-0.1l0,0c0.2,0.1,0.2,0.3,0.1,0.5l0,0c-0.1,0.1-0.2,0.2-0.3,0.2l0,0
						C362.3,314.4,362.2,314.4,362.2,314.3z M403.7,313.9c-0.1-0.2,0-0.4,0.1-0.5l0,0c0.2-0.1,0.4,0,0.5,0.1l0,0
						c0.1,0.2,0,0.4-0.1,0.5l0,0c0,0-0.1,0-0.2,0l0,0C403.9,314.1,403.7,314,403.7,313.9z M286.9,312.7c-0.1-0.2-0.1-0.4,0-0.5l0,0
						c0.1-0.1,0.4-0.1,0.5,0.1l0,0c0.1,0.1,0.1,0.4,0,0.5l0,0c-0.1,0-0.1,0.1-0.2,0.1l0,0C287,312.8,286.9,312.8,286.9,312.7z
						 M359.3,312.5C359.3,312.5,359.3,312.5,359.3,312.5L359.3,312.5c-0.2-0.1-0.2-0.3-0.1-0.5l0,0c0.1-0.2,0.3-0.2,0.5-0.1l0,0
						c0.1,0.1,0.2,0.3,0.1,0.5l0,0c-0.1,0.1-0.2,0.2-0.3,0.2l0,0C359.4,312.6,359.3,312.5,359.3,312.5z M406.6,312.3
						c-0.1-0.2,0-0.4,0.1-0.5l0,0c0.2-0.1,0.4,0,0.5,0.1l0,0c0.1,0.2,0,0.4-0.1,0.5l0,0c-0.1,0-0.1,0-0.2,0l0,0
						C406.8,312.4,406.7,312.4,406.6,312.3z M356.5,310.6c-0.2-0.1-0.2-0.3-0.1-0.5l0,0c0.1-0.1,0.3-0.2,0.5-0.1l0,0
						c0.2,0.1,0.2,0.3,0.1,0.5l0,0c-0.1,0.1-0.2,0.1-0.3,0.1l0,0C356.6,310.7,356.5,310.7,356.5,310.6z M409.5,310.5
						c-0.1-0.2,0-0.4,0.1-0.5l0,0c0.2-0.1,0.4,0,0.5,0.1l0,0c0.1,0.2,0,0.4-0.1,0.5l0,0l0,0l0,0c0,0-0.1,0.1-0.2,0.1l0,0
						C409.7,310.7,409.6,310.6,409.5,310.5z M289.5,310.5c-0.1-0.1-0.1-0.4,0-0.5l0,0c0.1-0.1,0.4-0.1,0.5,0l0,0
						c0.1,0.2,0.1,0.4-0.1,0.5l0,0c-0.1,0.1-0.1,0.1-0.2,0.1l0,0C289.7,310.6,289.6,310.6,289.5,310.5z M412.4,308.6
						c-0.1-0.2-0.1-0.4,0.1-0.5l0,0c0.2-0.1,0.4-0.1,0.5,0.1l0,0c0.1,0.2,0.1,0.4-0.1,0.5l0,0c-0.1,0-0.1,0.1-0.2,0.1l0,0
						C412.6,308.8,412.5,308.7,412.4,308.6z M353.6,308.7c-0.2-0.1-0.2-0.3-0.1-0.5l0,0c0.1-0.2,0.3-0.2,0.5-0.1l0,0
						c0.2,0.1,0.2,0.3,0.1,0.5l0,0c-0.1,0.1-0.2,0.2-0.3,0.2l0,0C353.8,308.8,353.7,308.8,353.6,308.7z M292.1,308.3
						c-0.1-0.1-0.1-0.4,0-0.5l0,0c0.1-0.1,0.4-0.1,0.5,0l0,0c0.1,0.1,0.1,0.4,0,0.5l0,0l0,0l0,0c-0.1,0.1-0.1,0.1-0.2,0.1l0,0
						C292.3,308.5,292.2,308.4,292.1,308.3z M350.8,306.8c-0.2-0.1-0.2-0.3-0.1-0.5l0,0c0.1-0.2,0.3-0.2,0.5-0.1l0,0
						c0.2,0.1,0.2,0.3,0.1,0.5l0,0c-0.1,0.1-0.2,0.1-0.3,0.1l0,0C351,306.9,350.9,306.9,350.8,306.8z M415.2,306.7
						c-0.1-0.1-0.1-0.4,0.1-0.5l0,0c0.1-0.1,0.4-0.1,0.5,0.1l0,0c0.1,0.1,0.1,0.4-0.1,0.5l0,0c-0.1,0-0.1,0.1-0.2,0.1l0,0
						C415.3,306.8,415.2,306.8,415.2,306.7z M294.7,306.2c-0.1-0.1-0.1-0.4,0-0.5l0,0c0.2-0.1,0.4-0.1,0.5,0l0,0
						c0.1,0.1,0.1,0.4,0,0.5l0,0c-0.1,0.1-0.1,0.1-0.2,0.1l0,0C294.9,306.3,294.8,306.3,294.7,306.2z M348,305
						c-0.2-0.1-0.2-0.3-0.1-0.5l0,0c0.1-0.2,0.3-0.2,0.5-0.1l0,0c0.2,0.1,0.2,0.3,0.1,0.5l0,0c-0.1,0.1-0.2,0.2-0.3,0.2l0,0
						C348.1,305.1,348,305.1,348,305z M417.9,304.7c-0.1-0.2-0.1-0.4,0.1-0.5l0,0c0.1-0.1,0.4-0.1,0.5,0.1l0,0
						c0.1,0.1,0.1,0.4-0.1,0.5l0,0c0,0,0,0,0,0l0,0c-0.1,0-0.1,0.1-0.2,0.1l0,0C418.1,304.8,418,304.7,417.9,304.7z M297.4,304.1
						c-0.1-0.2-0.1-0.4,0.1-0.5l0,0c0.1-0.1,0.4-0.1,0.5,0.1l0,0c0.1,0.1,0.1,0.4-0.1,0.5l0,0c-0.1,0-0.1,0.1-0.2,0.1l0,0
						C297.5,304.2,297.5,304.2,297.4,304.1z M345.1,303.3c-0.2-0.1-0.2-0.3-0.1-0.5l0,0c0.1-0.2,0.3-0.2,0.5-0.1l0,0
						c0.2,0.1,0.2,0.3,0.1,0.5l0,0c-0.1,0.1-0.2,0.2-0.3,0.2l0,0C345.2,303.3,345.1,303.3,345.1,303.3z M420.5,302.5
						c-0.1-0.1-0.1-0.4,0-0.5l0,0c0.2-0.1,0.4-0.1,0.5,0l0,0c0.1,0.1,0.1,0.4,0,0.5l0,0c-0.1,0-0.2,0.1-0.2,0.1l0,0
						C420.7,302.7,420.6,302.6,420.5,302.5z M300.1,302.1c-0.1-0.2-0.1-0.4,0.1-0.5l0,0c0.2-0.1,0.4-0.1,0.5,0.1l0,0
						c0.1,0.2,0.1,0.4-0.1,0.5l0,0c-0.1,0-0.1,0.1-0.2,0.1l0,0C300.3,302.2,300.2,302.2,300.1,302.1z M342.1,301.7
						c-0.2-0.1-0.2-0.3-0.1-0.5l0,0c0.1-0.2,0.3-0.2,0.5-0.2l0,0c0.2,0.1,0.2,0.3,0.1,0.5l0,0c-0.1,0.1-0.2,0.2-0.3,0.2l0,0
						C342.2,301.7,342.1,301.7,342.1,301.7z M423.1,300.3c-0.1-0.1-0.1-0.4,0-0.5h0c0.1-0.1,0.4-0.1,0.5,0l0,0
						c0.1,0.1,0.1,0.4,0,0.5l0,0c-0.1,0.1-0.1,0.1-0.2,0.1l0,0C423.3,300.5,423.2,300.4,423.1,300.3z M303,300.3
						c-0.1-0.2,0-0.4,0.1-0.5l0,0c0.2-0.1,0.4,0,0.5,0.1l0,0c0.1,0.2,0,0.4-0.1,0.5l0,0c0,0,0,0,0,0l0,0c-0.1,0-0.1,0-0.2,0l0,0
						C303.2,300.5,303.1,300.4,303,300.3z M339.1,300.2L339.1,300.2L339.1,300.2c-0.2-0.1-0.2-0.3-0.2-0.5l0,0
						c0.1-0.2,0.3-0.2,0.5-0.2l0,0c0.2,0.1,0.2,0.3,0.2,0.5l0,0c0,0.1-0.2,0.2-0.3,0.2l0,0C339.1,300.3,339.1,300.2,339.1,300.2z
						 M335.9,299c-0.2-0.1-0.3-0.3-0.2-0.4l0,0c0.1-0.2,0.3-0.3,0.4-0.2l0,0c0.2,0.1,0.3,0.3,0.2,0.4l0,0c0,0.1-0.2,0.2-0.3,0.2l0,0
						C336,299,336,299,335.9,299z M306,298.7c-0.1-0.2,0-0.4,0.2-0.5l0,0c0.2-0.1,0.4,0,0.5,0.2l0,0c0.1,0.2,0,0.4-0.2,0.5l0,0
						c0,0-0.1,0-0.1,0l0,0C306.2,298.9,306.1,298.8,306,298.7z M332.7,297.9c-0.2-0.1-0.3-0.2-0.2-0.4l0,0c0-0.2,0.2-0.3,0.4-0.2
						l0,0c0.2,0,0.3,0.2,0.2,0.4l0,0C333.1,297.8,333,297.9,332.7,297.9L332.7,297.9C332.8,297.9,332.8,297.9,332.7,297.9z
						 M309.1,297.4c-0.1-0.2,0-0.4,0.2-0.4l0,0c0.2-0.1,0.4,0,0.4,0.2l0,0c0.1,0.2,0,0.4-0.2,0.4l0,0c0,0-0.1,0-0.1,0l0,0
						C309.3,297.7,309.2,297.6,309.1,297.4z M329.5,297.1c-0.2,0-0.3-0.2-0.3-0.4l0,0c0-0.2,0.2-0.3,0.4-0.3l0,0
						c0.2,0,0.3,0.2,0.3,0.4l0,0C329.9,297,329.7,297.1,329.5,297.1L329.5,297.1C329.5,297.1,329.5,297.1,329.5,297.1z M312.4,296.5
						c0-0.2,0.1-0.4,0.3-0.4l0,0c0.2,0,0.4,0.1,0.4,0.3l0,0c0,0.2-0.1,0.4-0.3,0.4l0,0c0,0,0,0-0.1,0l0,0
						C312.6,296.8,312.4,296.7,312.4,296.5z M326.2,296.5L326.2,296.5L326.2,296.5c-0.2,0-0.3-0.2-0.3-0.4l0,0
						c0-0.2,0.2-0.3,0.4-0.3h0c0.2,0,0.3,0.2,0.3,0.4l0,0C326.5,296.4,326.4,296.5,326.2,296.5L326.2,296.5
						C326.2,296.5,326.2,296.5,326.2,296.5z M315.7,295.9c0-0.2,0.1-0.3,0.3-0.4l0,0c0.2,0,0.4,0.1,0.4,0.3l0,0
						c0,0.2-0.1,0.4-0.3,0.4l0,0c0,0,0,0,0,0l0,0C315.9,296.2,315.8,296.1,315.7,295.9z M322.8,296.1
						C322.8,296.1,322.8,296.1,322.8,296.1L322.8,296.1c-0.2,0-0.3-0.2-0.3-0.4l0,0c0-0.2,0.2-0.3,0.4-0.3l0,0
						c0.2,0,0.3,0.2,0.3,0.4l0,0C323.2,296,323,296.2,322.8,296.1L322.8,296.1C322.8,296.2,322.8,296.1,322.8,296.1z M319.1,295.7
						c0-0.2,0.1-0.3,0.3-0.3l0,0c0.2,0,0.3,0.1,0.3,0.3l0,0c0,0.2-0.2,0.3-0.3,0.3l0,0l0,0l0,0C319.3,296,319.1,295.9,319.1,295.7z"
						/>
					<path class="st2" d="M252.2,319c0,0-0.1,0-0.1,0c0,0-0.1,0-0.1-0.1c0,0-0.1-0.1-0.1-0.1c0,0,0-0.1,0-0.1c0-0.1,0-0.2,0.1-0.2
						c0,0,0.1-0.1,0.1-0.1c0.1,0,0.2,0,0.3,0c0,0,0.1,0,0.1,0.1c0.1,0.1,0.1,0.1,0.1,0.2c0,0,0,0.1,0,0.1c0,0,0,0.1-0.1,0.1
						c0,0-0.1,0.1-0.1,0.1C252.3,319,252.3,319,252.2,319z"/>
				</g>
			</g>
			<g>
				<g>
					<path class="st2" d="M307.1,216.6L307.1,216.6l-2.3-2.5c-4.1,3.9-9.7,6.3-15.6,6.3c-9.9,0-17.7-6.7-19.5-15.8l-3.5,0.9
						c0,0,0,0,0,0l-3.2,0.8c0.9,4.8,3.1,9.1,6.4,12.6c10.1,10.9,28.1,10.9,39.9,0L307.1,216.6z"/>
					<path class="st12" d="M312.1,179l-3.1,2.9c0,0,0,0,0,0l-2.1,2c3.6,3.9,5.6,9.2,5.2,15.1c-0.4,5.9-3.2,11.2-7.3,15.1l1.8,2l0,0
						l2.6,2.8c5.7-5.3,9.1-12.5,9.7-19.9C319.4,191.5,317,184.3,312.1,179z"/>
					<path class="st9" d="M312.1,179c-10.2-10.9-28.1-10.9-39.9,0c-7.6,7.1-11.1,17.5-9.2,27.2l4-1c0,0,0,0,0,0l2.7-0.7
						c-0.3-1.8-0.5-3.6-0.3-5.5c0.8-11.8,11.1-21.4,22.9-21.4c5.9,0,11.1,2.4,14.7,6.3l2.7-2.5c0,0,0,0,0,0L312.1,179z"/>
				</g>
				<g>
					<path class="st2" d="M340.8,216.6L340.8,216.6l2.7-2.5c-3.6-3.9-5.6-9.2-5.2-15.1c0.7-9.9,8-18.2,17.3-20.6l-0.7-3.4
						c0,0,0,0,0,0l-0.6-3.1c-4.9,1.3-9.4,3.8-13.2,7.3c-11.7,10.9-13,28.9-2.9,39.9L340.8,216.6z"/>
					<path class="st12" d="M378.2,218.9l-2.6-2.9c0,0,0,0,0,0l-1.8-2c-4.1,3.9-9.7,6.3-15.6,6.3c-5.9,0-11.1-2.4-14.7-6.3l-2.1,2h0
						l-3,2.8c4.9,5.3,11.9,8.3,19.3,8.3C365.1,227.2,372.5,224.2,378.2,218.9z"/>
					<path class="st9" d="M378.2,218.9c11.7-10.9,13-28.9,2.9-39.9c-6.6-7.1-16.8-9.9-26.7-7.3l0.8,3.9c0,0,0,0,0,0l0.5,2.7
						c1.8-0.5,3.7-0.7,5.6-0.7c11.8,0,20.7,9.6,19.8,21.4c-0.4,5.9-3.2,11.2-7.3,15.1l2.3,2.5c0,0,0,0,0,0L378.2,218.9z"/>
				</g>
			</g>
			<path class="st22" d="M425.4,173.3c0.6,0,1.1,0.2,1.5,0.6c0.4,0.4,0.6,0.9,0.5,1.5l-1.2,17.2c-0.1,1.2-1.2,2.3-2.4,2.3h-17.2
				c-0.6,0-1.1-0.2-1.5-0.6c-0.4-0.4-0.6-0.9-0.5-1.5l1.2-17.2c0.1-1.2,1.2-2.3,2.4-2.3H425.4 M425.4,172.4h-17.2
				c-1.7,0-3.2,1.4-3.3,3.1l-1.2,17.2c-0.1,1.7,1.2,3.1,2.9,3.1h17.2c1.7,0,3.2-1.4,3.3-3.1l1.2-17.2
				C428.4,173.8,427.1,172.4,425.4,172.4L425.4,172.4z"/>
			<path class="st22" d="M423.3,203c0.6,0,1.1,0.2,1.5,0.6c0.4,0.4,0.6,0.9,0.5,1.5l-1.2,17.2c-0.1,1.2-1.2,2.3-2.4,2.3h-17.2
				c-0.6,0-1.1-0.2-1.5-0.6c-0.4-0.4-0.6-0.9-0.5-1.5l1.2-17.2c0.1-1.2,1.2-2.3,2.4-2.3H423.3 M423.3,202.1H406
				c-1.7,0-3.2,1.4-3.3,3.1l-1.2,17.2c-0.1,1.7,1.2,3.1,2.9,3.1h17.2c1.7,0,3.2-1.4,3.3-3.1l1.2-17.2
				C426.3,203.5,425,202.1,423.3,202.1L423.3,202.1z"/>
			<path class="st9" d="M398,298.4c0.5,0,0.9,0.2,1.2,0.5c0.3,0.3,0.5,0.8,0.4,1.3c-0.1,1.1-1,1.9-2.1,1.9c-0.5,0-0.9-0.2-1.2-0.5
				c-0.3-0.3-0.5-0.8-0.4-1.3C396.1,299.3,397,298.4,398,298.4 M398,297.5c-1.5,0-2.8,1.2-2.9,2.7s1,2.7,2.5,2.7s2.8-1.2,2.9-2.7
				C400.7,298.8,399.6,297.5,398,297.5L398,297.5z"/>
			<g>
				<polygon class="st9" points="398.3,297.6 397.8,297.5 397.9,296.7 398.3,296.7 				"/>
				<path class="st9" d="M398.5,294.9l-0.4,0l0.1-1.8l0.4,0L398.5,294.9z M398.7,291.3l-0.4,0l0.1-1.8l0.4,0L398.7,291.3z
					 M399,287.7l-0.4,0l0.1-1.8l0.4,0L399,287.7z M399.2,284l-0.4,0l0.1-1.8l0.4,0L399.2,284z M399.5,280.4l-0.4,0l0.1-1.8l0.4,0
					L399.5,280.4z M399.7,276.8l-0.4,0l0.1-1.8l0.4,0L399.7,276.8z M400,273.2l-0.4,0l0.1-1.8l0.4,0L400,273.2z M400.3,269.6l-0.4,0
					l0.1-1.8l0.4,0L400.3,269.6z M400.5,266l-0.4,0l0.1-1.8l0.4,0L400.5,266z M400.8,262.4l-0.4,0l0.1-1.8l0.4,0L400.8,262.4z
					 M401,258.8l-0.4,0l0.1-1.8l0.4,0L401,258.8z"/>
				
					<rect x="400.7" y="254.5" transform="matrix(7.082759e-02 -0.9975 0.9975 7.082759e-02 118.654 636.7578)" class="st9" width="0.9" height="0.4"/>
			</g>
			<path class="st9" d="M419.8,254.7H261.4c-0.9,0-1.7-0.4-2.3-1c-0.6-0.6-0.9-1.5-0.8-2.4l0.8-10.9c0.1-1.8,1.7-3.3,3.5-3.3H421
				c0.9,0,1.7,0.4,2.3,1c0.6,0.6,0.9,1.5,0.8,2.4l-0.8,10.9C423.2,253.2,421.6,254.7,419.8,254.7z M262.6,238.1
				c-1.3,0-2.5,1.1-2.6,2.4l-0.8,10.9c0,0.6,0.2,1.2,0.6,1.7c0.4,0.4,1,0.7,1.6,0.7h158.3c1.3,0,2.5-1.1,2.6-2.4l0.8-10.9
				c0-0.6-0.2-1.2-0.6-1.7c-0.4-0.4-1-0.7-1.6-0.7H262.6z"/>
			<path class="st23" d="M416.4,244.2H266.3c-0.8,0-1.4-0.7-1.4-1.5l0,0c0.1-0.8,0.8-1.5,1.6-1.5h150.1c0.8,0,1.4,0.7,1.4,1.5l0,0
				C417.9,243.5,417.2,244.2,416.4,244.2z"/>
			<path class="st23" d="M391.4,250.4H265.8c-0.8,0-1.4-0.7-1.4-1.5l0,0c0.1-0.8,0.8-1.5,1.6-1.5h125.5c0.8,0,1.4,0.7,1.4,1.5l0,0
				C392.9,249.8,392.2,250.4,391.4,250.4z"/>
		</g>
	</g>
</g>
</svg>
